<svg t="1716800234228" class="icon" viewBox="0 0 1024 1024" version="1.1" xmlns="http://www.w3.org/2000/svg" p-id="1132" width="200" height="200"><path d="M520.223964 1023.99552c-108.479525 0-195.935143-27.807878-239.006954-44.671805-77.63166 43.39181-184.959191 41.631818-198.527132 41.24782A52.159772 52.159772 0 0 1 32.0021 966.971769c0.863996-28.671875 25.919887-51.519775 53.759765-50.431779 28.383876 0.959996 117.567486-4.319981 156.991313-36.47984a52.447771 52.447771 0 0 1 56.511753-6.239973c1.983991 0.991996 213.055068 102.399552 432.350108-0.543998a52.383771 52.383771 0 0 1 42.239815-1.023995c44.703804 18.33592 129.311434 47.455792 165.855275 47.455792A52.159772 52.159772 0 0 1 991.9979 971.771748a52.159772 52.159772 0 0 1-52.255771 52.031773c-54.719761 0-143.359373-31.231863-184.575193-46.975795A599.197379 599.197379 0 0 1 520.223964 1023.99552z m341.150507-191.93516a51.999773 51.999773 0 0 1-50.527778-65.471714l63.87172-238.974954-357.790435-66.079711-367.582391 66.30371 63.80772 238.782955a52.031772 52.031772 0 0 1-37.055837 63.679721 52.255771 52.255771 0 0 1-63.935721-36.895838l-78.399657-293.310717a51.935773 51.935773 0 0 1 41.18382-64.607717l432.766107-78.079659c6.207973-1.119995 12.607945-1.119995 18.815917 0.032l422.718151 78.079659c14.335937 2.655988 26.879882 11.135951 34.655848 23.359897 7.775966 12.255946 10.079956 27.199881 6.335973 41.21582l-78.399657 293.310717a52.287771 52.287771 0 0 1-50.46378 38.655831z" fill="#409EFF" p-id="1133"></path><path d="M844.894544 492.797844a52.159772 52.159772 0 0 1-52.255772-52.031772V214.91106H231.361228v225.855012A52.159772 52.159772 0 0 1 179.105456 492.797844a52.159772 52.159772 0 0 1-52.255771-52.031772V162.879287a52.159772 52.159772 0 0 1 52.255771-52.031772h665.789088a52.159772 52.159772 0 0 1 52.255771 52.031772v277.886785a52.159772 52.159772 0 0 1-52.255771 52.031772z" fill="#409EFF" p-id="1134"></path><path d="M554.335815 214.91106h-84.67163a52.159772 52.159772 0 0 1-52.255771-52.031773V52.031772A52.159772 52.159772 0 0 1 469.664185 0h84.67163a52.159772 52.159772 0 0 1 52.255771 52.031772V162.879287a52.159772 52.159772 0 0 1-52.255771 52.031773z" fill="#409EFF" p-id="1135"></path></svg>