<?xml version="1.0" standalone="no"?><!DOCTYPE svg PUBLIC "-//W3C//DTD SVG 1.1//EN" "http://www.w3.org/Graphics/SVG/1.1/DTD/svg11.dtd"><svg t="1718690253269" class="icon" viewBox="0 0 1024 1024" version="1.1" xmlns="http://www.w3.org/2000/svg" p-id="1042" width="200" height="200" xmlns:xlink="http://www.w3.org/1999/xlink"><path d="M531.41504 213.33504a201.66656 201.66656 0 0 1 201.68192 201.68192h31.02208a170.66496 170.66496 0 0 1 170.66496 170.67008v11.648A170.67008 170.67008 0 0 1 764.11904 768H298.66496A170.67008 170.67008 0 0 1 128 597.33504v-11.648a170.67008 170.67008 0 0 1 170.66496-170.67008h31.02208a201.6768 201.6768 0 0 1 201.728-201.68192z m0 42.66496a159.01184 159.01184 0 0 0-159.06304 159.01696v42.67008H298.66496a128 128 0 0 0-128 128v11.648a127.99488 127.99488 0 0 0 128 128h465.49504a128 128 0 0 0 128-128v-11.648a128 128 0 0 0-128-128h-73.728v-42.67008A159.0016 159.0016 0 0 0 531.41504 256z" fill="#e6e6e6" p-id="1043"></path></svg>